{"title":"Snoop Lion Ft. Miley Cyrus - Ashtrays And Heartbreaks [Music Vid","uid":8931985,"size":66377703,"categoryP":"video","categoryS":"music_videos","magnet":"?xt=urn:btih:1364894ae24ec3a7ca40d40eb3080fd9425d66e9&amp;dn=Snoop+Lion+Ft.+Miley+Cyrus+-+Ashtrays+And+Heartbreaks+%5BMusic+Vid&amp;tr=udp%3A%2F%2Ftracker.openbittorrent.com%3A80&amp;tr=udp%3A%2F%2Fopen.demonii.com%3A1337&amp;tr=udp%3A%2F%2Ftracker.coppersurfer.tk%3A6969&amp;tr=udp%3A%2F%2Fexodus.desync.com%3A6969","seeders":1,"leechers":0,"uploader":"Sbyky","files":1,"time":1379481149,"description":"[IMG]http://cdn.piczend.com/images/f8sK900P/1379453288_ashtraysandheartbreaks.jpg[/IMG]\n\nGeneral\nComplete name                            : Snoop Lion Ft. Miley Cyrus - Ashtrays And Heartbreaks [Music Video] 720p [Sbyky].mp4\nFormat                                   : MPEG-4\nFormat profile                           : Base Media / Version 2\nCodec ID                                 : mp42\nFile size                                : 63.3 MiB\nDuration                                 : 4mn 6s\nOverall bit rate mode                    : Variable\nOverall bit rate                         : 2 152 Kbps\nEncoded date                             : UTC 2013-06-03 17:16:20\nTagged date                              : UTC 2013-06-03 17:16:20\n\nVideo\nID                                       : 1\nFormat                                   : AVC\nFormat/Info                              : Advanced Video Codec\nFormat profile                           : &lt;a class=&quot;__cf_email__&quot; href=&quot;/cdn-cgi/l/email-protection&quot; data-cfemail=&quot;d199b8b6b9919de2ffe0&quot;&gt;[email&amp;#160;protected]&lt;/a&gt;&lt;script cf-hash='f9e31' type=&quot;text/javascript&quot;&gt;\n/* &lt;![CDATA[ */!function(){try{var t=&quot;currentScript&quot;in document?document.currentScript:function(){for(var t=document.getElementsByTagName(&quot;script&quot;),e=t.length;e--;)if(t[e].getAttribute(&quot;cf-hash&quot;))return t[e]}();if(t&amp;&amp;t.previousSibling){var e,r,n,i,c=t.previousSibling,a=c.getAttribute(&quot;data-cfemail&quot;);if(a){for(e=&quot;&quot;,r=parseInt(a.substr(0,2),16),n=2;a.length-n;n+=2)i=parseInt(a.substr(n,2),16)^r,e+=String.fromCharCode(i);e=document.createTextNode(e),c.parentNode.replaceChild(e,c)}}}catch(u){}}();/* ]]&gt; */&lt;/script&gt;\nFormat settings, CABAC                   : Yes\nFormat settings, ReFrames                : 1 frame\nCodec ID                                 : avc1\nCodec ID/Info                            : Advanced Video Coding\nDuration                                 : 4mn 6s\nBit rate                                 : 1 957 Kbps\nMaximum bit rate                         : 4 591 Kbps\nWidth                                    : 1 280 pixels\nHeight                                   : 720 pixels\nDisplay aspect ratio                     : 16:9\nFrame rate mode                          : Constant\nFrame rate                               : 23.976 fps\nColor space                              : YUV\nChroma subsampling                       : 4:2:0\nBit depth                                : 8 bits\nScan type                                : Progressive\nBits/(Pixel*Frame)                       : 0.089\nStream size                              : 57.6 MiB (91%)\nTagged date                              : UTC 2013-06-03 17:16:31\n\nAudio\nID                                       : 2\nFormat                                   : AAC\nFormat/Info                              : Advanced Audio Codec\nFormat profile                           : LC\nCodec ID                                 : 40\nDuration                                 : 4mn 6s\nBit rate mode                            : Variable\nBit rate                                 : 192 Kbps\nMaximum bit rate                         : 201 Kbps\nChannel(s)                               : 2 channels\nChannel positions                        : Front: L R\nSampling rate                            : 44.1 KHz\nCompression mode                         : Lossy\nStream size                              : 5.65 MiB (9%)\nTitle                                    : IsoMedia File Produced by Google, 5-11-2011\nEncoded date                             : UTC 2013-06-03 17:16:28\nTagged date                              : UTC 2013-06-03 17:16:31\n\nShared By Sbyky\n[IMG]http://cdn.piczend.com/images/X3Ag13N3/1379453786_saythanks.gif[/IMG]\n[IMG]http://cdn.piczend.com/images/gGqhX2S8/1379453780_keepseeding.gif[/IMG]","torrent":{"xt":"urn:btih:1364894ae24ec3a7ca40d40eb3080fd9425d66e9","amp;dn":"Snoop+Lion+Ft.+Miley+Cyrus+-+Ashtrays+And+Heartbreaks+%5BMusic+Vid","amp;tr":["udp%3A%2F%2Ftracker.openbittorrent.com%3A80","udp%3A%2F%2Fopen.demonii.com%3A1337","udp%3A%2F%2Ftracker.coppersurfer.tk%3A6969","udp%3A%2F%2Fexodus.desync.com%3A6969"],"infoHash":"1364894ae24ec3a7ca40d40eb3080fd9425d66e9","infoHashBuffer":{"type":"Buffer","data":[19,100,137,74,226,78,195,167,202,64,212,14,179,8,15,217,66,93,102,233]},"announce":[],"urlList":[]}}